<svg xmlns="http://www.w3.org/2000/svg" width="500" height="500" viewBox="0 0 500 500">
<g>
<path d="M 72.56 392.51 C52.33,384.19 42.52,368.45 40.08,340.39 C36.30,296.87 58.65,204.39 86.20,149.61 C90.72,140.62 90.63,140.59 93.85,152.50 C95.03,156.90 99.15,172.16 103.00,186.42 C106.85,200.67 110.00,212.68 110.00,213.10 C110.00,213.52 110.42,214.99 110.94,216.35 L 111.88 218.83 L 121.19 216.32 C126.31,214.94 133.57,213.00 137.32,212.00 C141.07,211.01 144.36,209.97 144.63,209.70 C144.91,209.43 144.03,205.45 142.69,200.85 C136.83,180.82 136.03,177.58 136.74,176.94 C137.16,176.57 142.90,174.84 149.50,173.09 C169.14,167.88 176.11,163.75 181.22,154.32 C185.41,146.57 186.56,138.51 184.66,130.09 C181.86,117.72 176.40,109.33 167.75,104.10 C165.69,102.86 164.00,101.69 164.00,101.51 C164.00,100.28 175.65,104.26 179.63,106.85 C187.50,111.98 192.09,113.78 199.09,114.51 L 205.69 115.20 L 206.34 139.85 C206.70,153.41 207.00,170.57 207.01,178.00 C207.02,185.43 207.36,191.95 207.77,192.50 C208.22,193.12 214.67,193.37 224.75,193.16 L 241.00 192.82 L 241.00 173.41 L 241.00 154.00 L 246.93 154.00 L 252.86 154.00 L 262.68 173.14 L 272.49 192.28 L 290.98 191.57 C301.14,191.19 309.63,190.71 309.82,190.51 C310.02,190.31 308.85,187.75 307.22,184.82 C305.59,181.90 300.38,172.52 295.63,164.00 C290.89,155.48 287.00,148.22 287.00,147.87 C287.00,147.53 288.32,146.69 289.94,146.03 C294.29,144.22 301.04,137.17 303.33,132.02 C304.44,129.53 305.61,124.62 305.93,121.11 L 306.50 114.71 L 311.00 113.54 C313.48,112.90 318.39,110.48 321.91,108.18 C325.44,105.87 329.94,103.58 331.91,103.07 C337.53,101.64 348.01,100.71 347.95,101.65 C347.92,102.12 345.78,103.88 343.20,105.56 C324.75,117.60 313.93,157.15 323.51,177.50 C331.49,194.45 347.89,204.55 373.83,208.50 C397.87,212.17 416.56,203.71 426.45,184.68 L 430.00 177.86 L 431.09 180.68 C434.71,189.98 441.55,210.38 444.96,222.00 C462.67,282.39 467.93,337.48 458.52,363.97 C453.63,377.73 442.51,388.63 428.57,393.34 C410.68,399.37 399.28,390.22 372.70,348.46 C366.77,339.13 361.19,330.48 360.32,329.23 C358.52,326.66 358.00,326.54 367.50,330.89 C381.27,337.20 398.01,338.64 406.50,334.25 C414.50,330.10 420.29,321.45 421.64,311.62 C422.93,302.21 415.08,292.17 398.88,282.49 C388.94,276.55 384.00,272.23 384.00,269.47 C384.00,264.91 390.47,263.66 397.50,266.86 C402.69,269.22 404.30,271.27 404.45,275.73 L 404.58 279.36 L 414.04 282.77 C430.16,288.59 428.71,288.58 429.93,282.88 C432.84,269.32 422.92,256.36 404.08,249.09 C385.74,242.02 369.60,242.99 362.02,251.63 C356.86,257.51 354.66,262.86 354.67,269.50 C354.70,280.17 359.87,286.71 377.24,298.09 C392.10,307.82 395.14,311.98 389.59,314.95 C387.53,316.05 386.14,315.93 380.31,314.16 C371.42,311.46 367.58,307.75 368.19,302.47 C368.68,298.27 369.34,298.70 353.27,292.64 L 344.03 289.16 L 342.92 293.29 C342.31,295.56 341.83,299.57 341.85,302.21 C341.87,304.84 341.65,307.00 341.37,307.00 C341.09,307.00 338.98,305.90 336.68,304.56 C331.07,301.28 322.35,300.02 305.25,300.01 C289.06,300.00 290.26,300.89 292.10,290.33 C293.39,282.95 292.37,283.26 307.65,285.64 C316.33,286.99 319.12,287.07 323.52,286.08 C333.37,283.88 341.46,276.24 344.15,266.59 C345.67,261.13 345.66,251.51 344.12,246.16 C342.59,240.85 336.30,233.80 330.67,231.10 C325.78,228.76 275.34,221.20 274.08,222.62 C273.44,223.35 266.89,267.04 263.86,290.90 C262.50,301.54 263.07,301.00 253.26,301.00 L 244.65 301.00 L 246.64 298.75 C250.21,294.72 252.01,291.12 253.62,284.84 C255.23,278.54 255.15,274.62 252.99,255.50 C252.50,251.10 251.54,241.52 250.88,234.21 C250.21,226.89 249.40,220.75 249.08,220.56 C248.47,220.20 222.71,222.98 222.21,223.46 C221.92,223.75 224.08,248.85 226.05,268.11 C227.07,278.07 227.01,279.00 225.04,283.19 C220.20,293.49 203.51,293.91 198.73,283.85 C197.30,280.83 194.69,260.10 192.43,233.75 L 191.77 226.00 L 188.63 226.09 C186.91,226.15 180.77,226.71 175.00,227.34 L 164.50 228.50 L 164.79 234.00 C165.66,250.53 169.32,285.14 170.62,289.21 C171.45,291.80 173.23,295.53 174.57,297.50 C177.56,301.92 177.56,302.00 174.60,302.00 C173.28,302.00 169.63,303.35 166.48,305.01 C160.89,307.95 160.78,307.97 161.49,305.76 C163.82,298.48 162.67,282.00 159.84,282.00 C159.24,282.00 153.85,283.65 147.87,285.68 L 137.00 289.35 L 137.00 295.54 C137.00,302.88 134.92,306.22 128.58,309.10 C120.31,312.86 112.00,310.58 107.81,303.42 C104.75,298.17 100.98,286.75 100.41,281.00 C99.73,274.01 101.94,269.41 107.50,266.28 C115.58,261.74 124.90,263.96 128.64,271.33 C129.53,273.07 130.35,274.62 130.47,274.76 C130.72,275.05 154.25,267.00 154.89,266.41 C156.05,265.34 151.25,256.43 147.18,252.10 C141.09,245.60 134.71,242.79 124.73,242.20 C104.67,241.01 83.30,252.08 75.89,267.50 C73.37,272.73 73.00,274.65 73.00,282.39 C73.00,302.74 83.20,322.21 97.72,329.57 C108.44,335.00 125.55,333.83 140.27,326.66 C144.00,324.84 146.92,323.61 146.77,323.93 C145.83,325.83 123.27,359.97 117.07,368.85 C100.27,392.93 88.63,399.12 72.56,392.51 ZM 300.50 264.11 C297.87,263.71 296.50,262.98 296.51,262.00 C296.54,257.59 298.28,246.95 299.04,246.47 C300.95,245.29 313.50,248.18 315.25,250.20 C317.91,253.27 317.55,259.54 314.55,262.55 C311.98,265.11 309.15,265.42 300.50,264.11 ZM 369.00 181.68 C359.93,178.53 356.02,174.48 354.19,166.34 C352.39,158.34 357.53,138.41 363.15,131.62 C366.72,127.31 372.89,124.06 377.57,124.02 C382.45,123.99 390.62,126.81 394.09,129.73 C401.24,135.74 402.62,145.07 398.66,160.62 C395.84,171.70 393.69,175.57 388.21,179.42 C383.40,182.80 375.06,183.78 369.00,181.68 ZM 129.68 152.29 C128.26,149.99 123.99,132.62 124.69,131.99 C126.36,130.50 138.65,127.86 142.47,128.17 C147.55,128.59 151.00,133.17 151.00,139.51 C151.00,145.21 148.02,148.04 139.67,150.27 C136.08,151.22 132.48,152.26 131.67,152.57 C130.86,152.88 129.97,152.75 129.68,152.29 ZM 240.00 122.00 L 240.00 114.00 L 255.02 114.00 L 270.04 114.00 L 271.18 116.50 C272.04,118.38 272.02,119.98 271.12,122.99 C269.33,128.97 266.53,130.00 252.05,130.00 L 240.00 130.00 L 240.00 122.00 Z" fill="rgba(0,0,0,1)"/>
</g>
</svg>